<svg width="9" height="10" viewBox="0 0 9 10" fill="none" xmlns="http://www.w3.org/2000/svg">
<path d="M3.9896 9.83176C3.76276 9.83176 3.64934 9.71834 3.64934 9.49149V6.46314L1.06333 7.99433C0.97259 8.06238 0.881853 8.08507 0.791115 8.06238C0.700378 8.0397 0.632325 7.98299 0.586957 7.89225L0.0765596 6.93951C-0.0595463 6.73535 -0.0141777 6.57656 0.212665 6.46314L2.79868 5.03403L0.212665 3.53686C-0.0141777 3.42344 -0.0595463 3.26465 0.0765596 3.06049L0.586957 2.10775C0.632325 2.01701 0.700378 1.9603 0.791115 1.93762C0.881853 1.91493 0.97259 1.93762 1.06333 2.00567L3.64934 3.57089V0.508508C3.64934 0.281665 3.76276 0.168243 3.9896 0.168243H5.0104C5.23724 0.168243 5.35066 0.281665 5.35066 0.508508L5.31663 3.57089L7.93667 2.00567C8.02741 1.93762 8.11815 1.91493 8.20888 1.93762C8.29962 1.9603 8.36767 2.01701 8.41304 2.10775L8.92344 3.06049C9.05955 3.26465 9.01418 3.42344 8.78733 3.53686L6.20132 5.03403L8.78733 6.46314C9.01418 6.57656 9.05955 6.73535 8.92344 6.93951L8.41304 7.89225C8.36767 7.98299 8.29962 8.0397 8.20888 8.06238C8.11815 8.08507 8.02741 8.06238 7.93667 7.99433L5.31663 6.46314L5.35066 9.49149C5.35066 9.71834 5.23724 9.83176 5.0104 9.83176H3.9896Z" fill="url(#paint0_linear_56_81)"/>
<defs>
<linearGradient id="paint0_linear_56_81" x1="1.5" y1="1" x2="9.1268" y2="7.08852" gradientUnits="userSpaceOnUse">
<stop stop-color="#EB6847"/>
<stop offset="1" stop-color="#F5498B"/>
</linearGradient>
</defs>
</svg>
