<svg width="12" height="12" viewBox="0 0 12 12" fill="none" xmlns="http://www.w3.org/2000/svg">
  <path fill-rule="evenodd" clip-rule="evenodd" d="M10.5 1.5C10.0875 1.5 9.75 1.8375 9.75 2.25V4.5C9.75 5.745 8.745 6.75 7.5 6.75H3.3075L4.275 5.7825C4.4175 5.6475 4.5 5.46 4.5 5.25C4.5 4.8375 4.1625 4.5 3.75 4.5C3.54 4.5 3.3525 4.5825 3.2175 4.7175L0.9675 6.9675C0.8325 7.1025 0.75 7.29 0.75 7.5C0.75 7.71 0.8325 7.8975 0.9675 8.0325L3.2175 10.2825C3.3525 10.4175 3.54 10.5 3.75 10.5C4.1625 10.5 4.5 10.1625 4.5 9.75C4.5 9.54 4.4175 9.3525 4.2825 9.2175L3.3075 8.25H7.5C9.57 8.25 11.25 6.57 11.25 4.5V2.25C11.25 1.8375 10.9125 1.5 10.5 1.5Z" fill="#ABB3BF"/>
</svg>