<svg width="60" height="76" viewBox="0 0 60 76" fill="none" xmlns="http://www.w3.org/2000/svg">
<path d="M30 57.5613C35.6924 57.5611 41.2568 55.8729 45.9897 52.7103C50.7226 49.5476 54.4114 45.0524 56.5895 39.7933C58.7676 34.5342 59.3373 28.7472 58.2265 23.1643C57.1157 17.5814 54.3743 12.4532 50.3489 8.42837C46.3236 4.40351 41.1951 1.6627 35.6121 0.552543C30.029 -0.557612 24.2421 0.0127518 18.9833 2.1915C13.7244 4.37026 9.22967 8.05954 6.06754 12.7928C2.90542 17.5261 1.2179 23.0907 1.2184 28.7831C1.21933 36.4159 4.25207 43.7357 9.64957 49.1325C15.0471 54.5294 22.3672 57.5613 30 57.5613ZM29.9988 8.9089C33.9345 8.90882 37.7819 10.0758 41.0543 12.2623C44.3268 14.4488 46.8774 17.5566 48.3836 21.1927C49.8897 24.8288 50.2839 28.8299 49.5161 32.69C48.7483 36.5501 46.8531 40.0958 44.0702 42.8788C41.2873 45.6618 37.7416 47.5571 33.8815 48.3249C30.0214 49.0928 26.0203 48.6987 22.3842 47.1926C18.7481 45.6865 15.6402 43.136 13.4536 39.8635C11.2671 36.5911 10.1 32.7438 10.1 28.8081C10.1002 23.5306 12.1968 18.4693 15.9285 14.7375C19.6603 11.0057 24.7216 8.90914 29.9991 8.9089H29.9988Z" fill="white"/>
<path d="M30 66.122L4.274 55L0 63.204L30 76L60 63.204L55.726 55L30 66.122Z" fill="white"/>
</svg>